HIERARCHY
ROOT Hips
{
	OFFSET 0.000000 100.481300 0.000000
	CHANNELS 6 Xposition Yposition Zposition Xrotation Yrotation Zrotation
	JOINT Spine
	{
		OFFSET -0.279200 12.230698 -2.892100
		CHANNELS 3 Xrotation Yrotation Zrotation
		JOINT Spine1
		{
			OFFSET -0.325700 14.269203 -3.374200
			CHANNELS 3 Xrotation Yrotation Zrotation
			JOINT Spine2
			{
				OFFSET -0.372300 16.307602 -0.352600
				CHANNELS 3 Xrotation Yrotation Zrotation
				JOINT Neck
				{
					OFFSET -0.418800 17.814194 8.416900
					CHANNELS 3 Xrotation Yrotation Zrotation
					JOINT Head
					{
						OFFSET 0.000000 7.031097 3.806800
						CHANNELS 3 Xrotation Yrotation Zrotation
						JOINT HeadTop_End
						{
							OFFSET 0.000000 24.646606 12.978600
							CHANNELS 3 Xrotation Yrotation Zrotation
							End Site
							{
								OFFSET 0.000000 27.854965 0.000000
							}
						}
					}
				}
				JOINT LeftShoulder
				{
					OFFSET 16.952999 14.495407 -7.737500
					CHANNELS 3 Xrotation Yrotation Zrotation
					JOINT LeftArm
					{
						OFFSET 9.308998 -2.777710 0.208600
						CHANNELS 3 Xrotation Yrotation Zrotation
						JOINT LeftForeArm
						{
							OFFSET 29.972298 0.000000 0.000000
							CHANNELS 3 Xrotation Yrotation Zrotation
							JOINT LeftHand
							{
								OFFSET 26.026505 0.000000 0.000000
								CHANNELS 3 Xrotation Yrotation Zrotation
								JOINT LeftHandThumb1
								{
									OFFSET 12.240501 -7.147949 9.207150
									CHANNELS 3 Xrotation Yrotation Zrotation
									JOINT LeftHandThumb2
									{
										OFFSET 4.138618 -2.389435 2.389433
										CHANNELS 3 Xrotation Yrotation Zrotation
										JOINT LeftHandThumb3
										{
											OFFSET 2.726913 -1.574387 1.574386
											CHANNELS 3 Xrotation Yrotation Zrotation
											JOINT LeftHandThumb4
											{
												OFFSET 3.941010 -2.275345 2.275342
												CHANNELS 3 Xrotation Yrotation Zrotation
												End Site
												{
													OFFSET -0.005798 5.087799 0.009903
												}
											}
										}
									}
								}
								JOINT LeftHandIndex1
								{
									OFFSET 24.424698 -1.985611 5.953459
									CHANNELS 3 Xrotation Yrotation Zrotation
									JOINT LeftHandIndex2
									{
										OFFSET 6.426697 0.000000 0.000000
										CHANNELS 3 Xrotation Yrotation Zrotation
										JOINT LeftHandIndex3
										{
											OFFSET 5.337898 0.000000 0.000000
											CHANNELS 3 Xrotation Yrotation Zrotation
											JOINT LeftHandIndex4
											{
												OFFSET 4.409401 0.000000 0.000000
												CHANNELS 3 Xrotation Yrotation Zrotation
												End Site
												{
													OFFSET 0.000000 4.409363 0.014373
												}
											}
										}
									}
								}
								JOINT LeftHandMiddle1
								{
									OFFSET 23.810104 0.000000 0.000000
									CHANNELS 3 Xrotation Yrotation Zrotation
									JOINT LeftHandMiddle2
									{
										OFFSET 7.176498 0.000000 0.000000
										CHANNELS 3 Xrotation Yrotation Zrotation
										JOINT LeftHandMiddle3
										{
											OFFSET 6.774902 0.000000 0.000000
											CHANNELS 3 Xrotation Yrotation Zrotation
											JOINT LeftHandMiddle4
											{
												OFFSET 5.403328 0.000000 0.000000
												CHANNELS 3 Xrotation Yrotation Zrotation
												End Site
												{
													OFFSET -0.027702 5.403244 0.017414
												}
											}
										}
									}
								}
								JOINT LeftHandRing1
								{
									OFFSET 22.908401 -0.839279 -6.020567
									CHANNELS 3 Xrotation Yrotation Zrotation
									JOINT LeftHandRing2
									{
										OFFSET 6.337502 0.000000 0.000000
										CHANNELS 3 Xrotation Yrotation Zrotation
										JOINT LeftHandRing3
										{
											OFFSET 5.779297 0.000000 0.000000
											CHANNELS 3 Xrotation Yrotation Zrotation
											JOINT LeftHandRing4
											{
												OFFSET 4.965698 0.000000 0.000000
												CHANNELS 3 Xrotation Yrotation Zrotation
												End Site
												{
													OFFSET 0.000000 4.965668 0.016186
												}
											}
										}
									}
								}
								JOINT LeftHandPinky1
								{
									OFFSET 20.037003 -1.530319 -10.950146
									CHANNELS 3 Xrotation Yrotation Zrotation
									JOINT LeftHandPinky2
									{
										OFFSET 5.254700 0.000000 0.000000
										CHANNELS 3 Xrotation Yrotation Zrotation
										JOINT LeftHandPinky3
										{
											OFFSET 4.810204 0.000000 0.000000
											CHANNELS 3 Xrotation Yrotation Zrotation
											JOINT LeftHandPinky4
											{
												OFFSET 3.647202 0.000000 0.000000
												CHANNELS 3 Xrotation Yrotation Zrotation
												End Site
												{
													OFFSET 0.000000 3.647186 0.011889
												}
											}
										}
									}
								}
							}
						}
					}
				}
				JOINT RightShoulder
				{
					OFFSET -15.141001 14.495407 -7.737500
					CHANNELS 3 Xrotation Yrotation Zrotation
					JOINT RightArm
					{
						OFFSET -9.308998 -2.777710 0.208500
						CHANNELS 3 Xrotation Yrotation Zrotation
						JOINT RightForeArm
						{
							OFFSET -29.972300 0.000000 0.000000
							CHANNELS 3 Xrotation Yrotation Zrotation
							JOINT RightHand
							{
								OFFSET -26.026505 0.000000 0.000000
								CHANNELS 3 Xrotation Yrotation Zrotation
								JOINT RightHandThumb1
								{
									OFFSET -12.240601 -7.148026 9.207092
									CHANNELS 3 Xrotation Yrotation Zrotation
									JOINT RightHandThumb2
									{
										OFFSET -4.138618 -2.389435 2.389433
										CHANNELS 3 Xrotation Yrotation Zrotation
										JOINT RightHandThumb3
										{
											OFFSET -2.726974 -1.574417 1.574421
											CHANNELS 3 Xrotation Yrotation Zrotation
											JOINT RightHandThumb4
											{
												OFFSET -3.941010 -2.275345 2.275343
												CHANNELS 3 Xrotation Yrotation Zrotation
												End Site
												{
													OFFSET 0.005814 5.087799 0.009927
												}
											}
										}
									}
								}
								JOINT RightHandIndex1
								{
									OFFSET -24.424698 -1.985657 5.953444
									CHANNELS 3 Xrotation Yrotation Zrotation
									JOINT RightHandIndex2
									{
										OFFSET -6.426697 0.000000 0.000000
										CHANNELS 3 Xrotation Yrotation Zrotation
										JOINT RightHandIndex3
										{
											OFFSET -5.337898 0.000000 0.000000
											CHANNELS 3 Xrotation Yrotation Zrotation
											JOINT RightHandIndex4
											{
												OFFSET -4.409401 0.000000 0.000000
												CHANNELS 3 Xrotation Yrotation Zrotation
												End Site
												{
													OFFSET 0.000000 4.409363 0.014408
												}
											}
										}
									}
								}
								JOINT RightHandMiddle1
								{
									OFFSET -23.810097 0.000000 0.000000
									CHANNELS 3 Xrotation Yrotation Zrotation
									JOINT RightHandMiddle2
									{
										OFFSET -7.176498 0.000000 0.000000
										CHANNELS 3 Xrotation Yrotation Zrotation
										JOINT RightHandMiddle3
										{
											OFFSET -6.774902 0.000000 0.000000
											CHANNELS 3 Xrotation Yrotation Zrotation
											JOINT RightHandMiddle4
											{
												OFFSET -5.403328 0.000000 0.000000
												CHANNELS 3 Xrotation Yrotation Zrotation
												End Site
												{
													OFFSET 0.027702 5.403244 0.017457
												}
											}
										}
									}
								}
								JOINT RightHandRing1
								{
									OFFSET -22.908302 -0.839325 -6.020576
									CHANNELS 3 Xrotation Yrotation Zrotation
									JOINT RightHandRing2
									{
										OFFSET -6.337502 0.000000 0.000000
										CHANNELS 3 Xrotation Yrotation Zrotation
										JOINT RightHandRing3
										{
											OFFSET -5.779297 0.000000 0.000000
											CHANNELS 3 Xrotation Yrotation Zrotation
											JOINT RightHandRing4
											{
												OFFSET -4.965698 0.000000 0.000000
												CHANNELS 3 Xrotation Yrotation Zrotation
												End Site
												{
													OFFSET 0.000000 4.965668 0.016226
												}
											}
										}
									}
								}
								JOINT RightHandPinky1
								{
									OFFSET -20.037003 -1.530334 -10.950259
									CHANNELS 3 Xrotation Yrotation Zrotation
									JOINT RightHandPinky2
									{
										OFFSET -5.254700 0.000000 0.000000
										CHANNELS 3 Xrotation Yrotation Zrotation
										JOINT RightHandPinky3
										{
											OFFSET -4.810204 0.000000 0.000000
											CHANNELS 3 Xrotation Yrotation Zrotation
											JOINT RightHandPinky4
											{
												OFFSET -3.647202 0.000000 0.000000
												CHANNELS 3 Xrotation Yrotation Zrotation
												End Site
												{
													OFFSET 0.000000 3.647186 0.011917
												}
											}
										}
									}
								}
							}
						}
					}
				}
			}
		}
	}
	JOINT LeftUpLeg
	{
		OFFSET 15.427100 -6.655098 0.678600
		CHANNELS 3 Xrotation Yrotation Zrotation
		JOINT LeftLeg
		{
			OFFSET 4.081073 -39.591068 13.024000
			CHANNELS 3 Xrotation Yrotation Zrotation
			JOINT LeftFoot
			{
				OFFSET -4.081074 -37.707932 -15.979700
				CHANNELS 3 Xrotation Yrotation Zrotation
				JOINT LeftToeBase
				{
					OFFSET 5.346399 -15.068900 20.645000
					CHANNELS 3 Xrotation Yrotation Zrotation
					JOINT LeftToe_End
					{
						OFFSET 2.754700 0.931300 11.300900
						CHANNELS 3 Xrotation Yrotation Zrotation
						End Site
						{
							OFFSET 0.000000 11.669021 0.000000
						}
					}
				}
			}
		}
	}
	JOINT RightUpLeg
	{
		OFFSET -15.569500 -6.655098 0.678600
		CHANNELS 3 Xrotation Yrotation Zrotation
		JOINT RightLeg
		{
			OFFSET -4.081825 -39.591045 13.023800
			CHANNELS 3 Xrotation Yrotation Zrotation
			JOINT RightFoot
			{
				OFFSET 4.081824 -37.707954 -15.979600
				CHANNELS 3 Xrotation Yrotation Zrotation
				JOINT RightToeBase
				{
					OFFSET -5.346400 -15.068900 20.645000
					CHANNELS 3 Xrotation Yrotation Zrotation
					JOINT RightToe_End
					{
						OFFSET -2.754700 0.931300 11.300900
						CHANNELS 3 Xrotation Yrotation Zrotation
						End Site
						{
							OFFSET 0.000000 11.669021 0.000000
						}
					}
				}
			}
		}
	}
}
MOTION
Frames: 6
Frame Time: 0.033333
2.195107 72.838989 -1.714693 -5.400176 -46.432087 -0.526811 9.420035 7.435542 -1.366550 2.187717 0.989898 -0.915630 2.202827 0.982778 -0.894153 0.084650 13.220548 4.538681 8.920923 20.138142 -4.130232 0.000001 -0.000000 -0.000001 1.117178 3.546346 -8.633308 -53.487017 4.935498 -51.503004 0.000274 -106.358067 0.000252 1.988597 -7.706141 -15.869244 -6.141217 -11.690804 -6.761691 9.914103 42.595522 3.409872 -0.422808 8.108100 27.509118 -0.000002 0.000001 -0.000000 0.255316 3.378216 -45.814341 5.654087 5.847749 -88.067448 2.162143 4.544810 -50.866379 -0.000001 -0.000002 -0.000001 -0.461470 3.841592 -39.722690 6.450749 5.820354 -95.892857 2.182887 4.561568 -51.127733 0.000000 -0.000001 -0.000000 0.469726 4.966825 -39.799447 8.181049 5.368609 -113.503018 3.200491 5.218116 -63.022975 -0.000001 -0.000000 0.000000 -3.762424 9.063683 -45.253825 5.342534 5.829009 -85.005297 8.716834 5.103335 -119.369153 0.000000 0.000000 0.000000 3.036128 13.027201 -5.371408 -48.713712 27.172842 83.457057 0.000077 105.988287 -0.000077 -8.345373 17.548105 8.775675 -7.341119 13.749651 7.412349 9.855797 -44.489096 -3.903266 -0.115777 -14.513095 -28.973861 0.000001 0.000004 -0.000002 -0.124380 -2.384793 45.108864 4.500585 -4.654544 88.071150 1.723227 -3.618378 50.920105 -0.000000 0.000001 0.000000 -0.761628 -2.932908 39.031072 5.133892 -4.632761 95.881649 1.739747 -3.631703 51.181367 0.000001 -0.000001 0.000000 0.154757 -4.068818 39.122675 6.509729 -4.273593 113.462863 2.549582 -4.153923 63.067317 -0.000001 0.000000 -0.000000 -4.198875 -8.025515 44.637783 4.252917 -4.639644 85.014805 6.935965 -4.062622 119.322271 0.000001 0.000000 0.000000 -34.255499 5.085934 20.300789 56.771679 -7.634008 3.672678 -20.132865 -7.078591 -17.222792 -1.594049 -0.000007 -0.000005 -0.000000 -0.000002 -0.000000 -19.408623 -8.980153 -34.667578 57.008099 -2.876402 -4.766512 -26.306643 -10.338600 26.246226 -0.013002 -0.000039 -0.000003 -0.000000 -0.000002 0.000000 
1.641429 73.388412 -1.866706 -7.482593 -44.580747 -1.191072 8.643756 5.230841 -1.294276 3.701719 0.180809 -1.466073 3.723052 0.167368 -1.442059 1.202048 11.841861 3.803933 9.517114 22.250904 -2.818427 0.000002 -0.000000 -0.000001 0.671312 2.839095 -6.675447 -48.600122 4.824253 -51.661410 0.000147 -107.570603 0.000145 -3.510145 -6.585468 -13.785266 -6.141219 -11.690804 -6.761689 9.914109 42.595525 3.409864 -0.422809 8.108097 27.509121 -0.000001 -0.000000 -0.000001 0.255316 3.378217 -45.814337 5.654087 5.847750 -88.067448 2.162144 4.544810 -50.866379 -0.000001 -0.000000 -0.000003 -0.461472 3.841594 -39.722686 6.450747 5.820352 -95.892857 2.182889 4.561564 -51.127740 -0.000001 -0.000002 0.000001 0.469724 4.966829 -39.799454 8.181051 5.368611 -113.503018 3.200489 5.218116 -63.022982 0.000001 -0.000001 0.000001 -3.762425 9.063684 -45.253825 5.342531 5.829007 -85.005297 8.716836 5.103333 -119.369153 0.000002 0.000001 0.000002 4.574550 15.128770 -3.773729 -49.774010 24.693801 79.242543 -0.000027 105.762064 0.000021 -12.602466 18.405919 10.133731 -7.341117 13.749650 7.412349 9.855792 -44.489096 -3.903256 -0.115776 -14.513093 -28.973861 -0.000000 -0.000002 -0.000001 -0.124377 -2.384792 45.108861 4.500583 -4.654545 88.071150 1.723225 -3.618380 50.920109 -0.000001 0.000001 -0.000002 -0.761626 -2.932909 39.031075 5.133892 -4.632760 95.881656 1.739750 -3.631700 51.181370 0.000000 -0.000001 -0.000001 0.154759 -4.068820 39.122675 6.509732 -4.273596 113.462870 2.549582 -4.153921 63.067317 -0.000001 0.000001 0.000001 -4.198873 -8.025515 44.637783 4.252918 -4.639646 85.014798 6.935966 -4.062622 119.322271 0.000001 -0.000000 0.000000 -32.070610 4.608098 17.805023 55.504808 -6.965298 5.414236 -19.670598 -7.051311 -18.324382 -1.600007 -0.000038 0.000002 0.000000 -0.000001 -0.000000 -17.193931 -11.620914 -35.691007 56.089186 -1.397033 -4.456205 -26.988181 -11.310314 24.928903 -0.013021 -0.000015 -0.000001 0.000000 0.000000 0.000000 
0.585467 74.222061 -1.786671 -10.466575 -40.686163 -1.882840 7.398139 2.655209 -0.745820 5.244441 -0.801508 -1.744337 5.273390 -0.830169 -1.720096 2.266872 10.392781 2.732662 10.698972 24.751383 -1.802893 -0.000001 -0.000000 -0.000001 0.346570 2.566986 -4.746219 -40.024038 2.118134 -55.181471 0.000133 -108.494727 0.000142 -9.897104 -3.788237 -11.403716 -6.141216 -11.690801 -6.761689 9.914110 42.595522 3.409866 -0.422804 8.108094 27.509123 -0.000001 -0.000003 -0.000000 0.255313 3.378220 -45.814341 5.654086 5.847750 -88.067448 2.162142 4.544810 -50.866372 -0.000001 -0.000001 -0.000002 -0.461471 3.841596 -39.722690 6.450749 5.820353 -95.892864 2.182889 4.561561 -51.127733 -0.000001 0.000002 -0.000003 0.469723 4.966830 -39.799444 8.181050 5.368611 -113.503018 3.200489 5.218113 -63.022975 -0.000001 0.000000 -0.000000 -3.762427 9.063687 -45.253821 5.342532 5.829008 -85.005297 8.716837 5.103333 -119.369167 -0.000003 0.000000 -0.000001 5.913803 16.043850 -2.121185 -51.940573 22.939289 75.725529 0.000126 105.291389 -0.000147 -17.266385 18.197547 11.291142 -7.341119 13.749652 7.412344 9.855802 -44.489096 -3.903257 -0.115782 -14.513093 -28.973861 -0.000000 -0.000001 -0.000003 -0.124378 -2.384790 45.108864 4.500584 -4.654545 88.071157 1.723224 -3.618382 50.920105 -0.000000 -0.000000 -0.000002 -0.761626 -2.932909 39.031072 5.133893 -4.632758 95.881656 1.739747 -3.631702 51.181370 0.000001 0.000001 -0.000003 0.154759 -4.068818 39.122675 6.509730 -4.273593 113.462870 2.549582 -4.153922 63.067317 0.000002 0.000002 -0.000002 -4.198874 -8.025512 44.637783 4.252918 -4.639644 85.014805 6.935964 -4.062622 119.322271 0.000001 0.000000 0.000000 -29.079985 4.103099 13.989961 53.633917 -6.787928 8.076353 -18.854833 -7.655428 -19.346011 -1.609955 0.000007 0.000006 -0.000000 0.000002 -0.000000 -13.573276 -17.495941 -38.274034 54.006576 0.304329 -3.773372 -28.112471 -11.443142 23.682861 -0.013046 0.000011 0.000004 -0.000000 -0.000000 0.000001 
-1.102363 75.494766 -1.085873 -13.814355 -34.789876 -1.781974 5.170779 1.125515 0.143653 6.337697 -1.007389 -1.830727 6.375302 -1.057744 -1.806812 2.997499 8.939282 0.971633 10.098996 28.231235 -2.006485 0.000001 -0.000000 -0.000000 0.191268 2.832935 -2.992542 -28.360030 -5.194528 -60.416609 -0.000046 -110.997240 -0.000029 -14.705542 0.167434 -12.383668 -6.141217 -11.690803 -6.761690 9.914112 42.595525 3.409863 -0.422806 8.108100 27.509120 -0.000000 -0.000001 -0.000002 0.255316 3.378218 -45.814341 5.654084 5.847751 -88.067455 2.162143 4.544813 -50.866386 0.000003 0.000002 -0.000002 -0.461467 3.841596 -39.722686 6.450750 5.820353 -95.892864 2.182889 4.561566 -51.127736 0.000001 0.000001 -0.000001 0.469727 4.966829 -39.799451 8.181049 5.368610 -113.503018 3.200489 5.218114 -63.022975 0.000000 -0.000000 -0.000000 -3.762423 9.063685 -45.253825 5.342530 5.829009 -85.005297 8.716837 5.103332 -119.369153 -0.000003 -0.000001 -0.000001 7.023542 16.396999 -0.459547 -53.053484 22.160199 71.266809 0.000012 106.996232 -0.000039 -20.287648 16.934073 7.293562 -7.341119 13.749651 7.412345 9.855795 -44.489096 -3.903258 -0.115781 -14.513097 -28.973861 -0.000000 -0.000001 -0.000002 -0.124379 -2.384792 45.108861 4.500585 -4.654544 88.071150 1.723225 -3.618380 50.920112 -0.000000 -0.000000 0.000001 -0.761627 -2.932909 39.031072 5.133890 -4.632761 95.881656 1.739748 -3.631700 51.181367 -0.000000 0.000002 -0.000000 0.154759 -4.068816 39.122675 6.509732 -4.273595 113.462863 2.549582 -4.153925 63.067317 -0.000000 0.000000 -0.000002 -4.198874 -8.025513 44.637783 4.252922 -4.639643 85.014805 6.935964 -4.062619 119.322285 -0.000000 -0.000000 -0.000000 -24.921108 3.285538 10.195921 50.451158 -6.234466 9.779127 -17.871873 -10.911750 -20.325325 -1.631247 0.000016 0.000002 0.000000 -0.000001 -0.000000 -8.515269 -26.601063 -41.608846 49.849582 2.156154 -3.308666 -28.999894 -11.654272 23.091654 -0.013067 0.000010 0.000002 -0.000000 -0.000000 0.000000 
-3.677783 77.229027 0.915905 -16.499736 -25.019608 0.542624 0.918231 4.330893 0.087222 6.097365 1.920237 -2.965295 6.130050 1.862849 -2.910195 2.721083 7.391990 -2.833202 2.308623 33.279458 -2.693040 -0.000000 0.000003 0.000000 0.156761 4.416989 -1.161685 -23.975796 -14.141014 -62.157133 0.000033 -116.087753 0.000024 -22.308742 1.785316 -22.847999 -6.141216 -11.690800 -6.761685 9.914115 42.595522 3.409873 -0.422806 8.108097 27.509118 0.000003 0.000000 0.000002 0.255319 3.378216 -45.814341 5.654087 5.847751 -88.067448 2.162143 4.544809 -50.866382 0.000000 -0.000001 0.000000 -0.461472 3.841595 -39.722686 6.450747 5.820353 -95.892857 2.182889 4.561568 -51.127736 0.000003 -0.000001 0.000001 0.469728 4.966828 -39.799447 8.181049 5.368612 -113.503018 3.200490 5.218113 -63.022982 0.000001 -0.000000 0.000000 -3.762425 9.063684 -45.253821 5.342533 5.829009 -85.005297 8.716838 5.103336 -119.369167 -0.000002 -0.000000 0.000001 8.384807 20.318641 1.141664 -42.109841 16.207967 56.973278 0.000032 116.480557 -0.000031 -20.809092 18.122476 -15.254116 -7.341118 13.749651 7.412350 9.855799 -44.489096 -3.903259 -0.115778 -14.513093 -28.973861 -0.000000 -0.000001 -0.000003 -0.124377 -2.384789 45.108857 4.500582 -4.654544 88.071157 1.723225 -3.618380 50.920109 0.000000 0.000001 0.000000 -0.761626 -2.932910 39.031075 5.133894 -4.632759 95.881649 1.739747 -3.631700 51.181367 0.000000 0.000000 -0.000001 0.154759 -4.068818 39.122675 6.509731 -4.273596 113.462863 2.549582 -4.153923 63.067324 0.000001 0.000000 0.000000 -4.198874 -8.025514 44.637779 4.252921 -4.639645 85.014805 6.935968 -4.062622 119.322271 -0.000001 -0.000001 -0.000000 -20.648522 0.989803 6.098935 45.708138 -4.814056 9.922769 -16.779212 -18.343508 -21.419869 -1.601579 0.000004 -0.000001 -0.000000 0.000000 -0.000000 1.583646 -38.784795 -41.066905 41.657699 4.254871 -3.436467 -28.925578 -17.149818 23.277910 -0.013117 0.000035 -0.000008 -0.000000 0.000000 -0.000000 
-6.689226 79.015640 3.954838 -18.137258 -12.308050 4.629071 -4.308934 11.693838 -1.629812 4.865559 7.386568 -5.934327 4.844264 7.346098 -5.806142 1.374579 5.610987 -7.406178 -11.379525 39.180462 -1.503224 0.000000 -0.000000 -0.000000 0.113101 6.847435 1.169177 -36.599552 -12.347519 -65.386330 -0.000028 -117.424803 -0.000030 -36.038206 4.287664 -35.888375 -6.141216 -11.690805 -6.761693 9.914109 42.595522 3.409873 -0.422805 8.108092 27.509118 0.000000 -0.000001 -0.000001 0.255317 3.378217 -45.814341 5.654087 5.847750 -88.067448 2.162142 4.544809 -50.866379 -0.000000 -0.000001 -0.000004 -0.461471 3.841595 -39.722690 6.450748 5.820352 -95.892857 2.182889 4.561565 -51.127733 -0.000000 0.000001 -0.000001 0.469724 4.966829 -39.799451 8.181048 5.368611 -113.503018 3.200490 5.218116 -63.022982 -0.000000 0.000000 -0.000001 -3.762426 9.063686 -45.253825 5.342535 5.829009 -85.005297 8.716836 5.103335 -119.369167 0.000000 0.000001 0.000001 9.811755 27.073594 2.790562 -23.289507 -0.969516 37.847041 0.000009 129.106326 -0.000019 -24.182227 19.815294 -30.010881 -7.341119 13.749653 7.412346 9.855796 -44.489093 -3.903259 -0.115774 -14.513093 -28.973857 -0.000000 0.000001 -0.000000 -0.124375 -2.384790 45.108861 4.500584 -4.654545 88.071150 1.723224 -3.618381 50.920109 -0.000001 0.000001 0.000001 -0.761627 -2.932910 39.031072 5.133891 -4.632759 95.881649 1.739748 -3.631700 51.181367 -0.000001 0.000000 0.000001 0.154757 -4.068819 39.122678 6.509730 -4.273597 113.462863 2.549583 -4.153923 63.067317 0.000001 -0.000001 0.000001 -4.198872 -8.025512 44.637783 4.252919 -4.639645 85.014805 6.935969 -4.062622 119.322285 -0.000000 0.000002 0.000001 -18.114025 -2.643242 1.798981 40.622506 -3.150136 9.976983 -16.092563 -28.081269 -23.122309 -1.559587 -0.000005 -0.000004 -0.000000 0.000002 0.000000 20.170035 -51.555169 -29.820746 28.893934 5.299077 -3.327002 -26.702710 -26.590965 23.750938 -0.013222 0.000008 0.000007 0.000000 0.000000 -0.000000 
